HIERARCHY
ROOT Hips
{
	OFFSET -0.001795 -0.223333 0.028219
	CHANNELS 6 Xposition Yposition Zposition Zrotation Yrotation Xrotation
	JOINT LeftUpLeg
	{
		OFFSET 0.069520 -0.091406 -0.006815
		CHANNELS 3 Zrotation Yrotation Xrotation
		JOINT LeftLeg
		{
			OFFSET 0.034277 -0.375199 -0.004496
			CHANNELS 3 Zrotation Yrotation Xrotation
			JOINT LeftFoot
			{
				OFFSET -0.013596 -0.397961 -0.043693
				CHANNELS 3 Zrotation Yrotation Xrotation
				JOINT LeftToe
				{
					OFFSET 0.026358 -0.055791 0.119288
					CHANNELS 3 Zrotation Yrotation Xrotation
					End Site
					{
						OFFSET 0.000000 0.000000 0.000000
					}
				}
			}
		}
	}
	JOINT RightUpLeg
	{
		OFFSET -0.067670 -0.090522 -0.004320
		CHANNELS 3 Zrotation Yrotation Xrotation
		JOINT RightLeg
		{
			OFFSET -0.038290 -0.382569 -0.008850
			CHANNELS 3 Zrotation Yrotation Xrotation
			JOINT RightFoot
			{
				OFFSET 0.015774 -0.398415 -0.042312
				CHANNELS 3 Zrotation Yrotation Xrotation
				JOINT RightToe
				{
					OFFSET -0.025372 -0.048144 0.123348
					CHANNELS 3 Zrotation Yrotation Xrotation
					End Site
					{
						OFFSET 0.000000 0.000000 0.000000
					}
				}
			}
		}
	}
	JOINT Spine
	{
		OFFSET -0.002533 0.108963 -0.026696
		CHANNELS 3 Zrotation Yrotation Xrotation
		JOINT Spine1
		{
			OFFSET 0.005487 0.135180 0.001092
			CHANNELS 3 Zrotation Yrotation Xrotation
			JOINT Spine2
			{
				OFFSET 0.001457 0.052922 0.025425
				CHANNELS 3 Zrotation Yrotation Xrotation
				JOINT Neck
				{
					OFFSET -0.002778 0.213870 -0.042857
					CHANNELS 3 Zrotation Yrotation Xrotation
					JOINT Head
					{
						OFFSET 0.005152 0.064970 0.051349
						CHANNELS 3 Zrotation Yrotation Xrotation
						End Site
						{
							OFFSET 0.000000 0.000000 0.000000
						}
					}
				}
				JOINT LeftShoulder
				{
					OFFSET 0.078845 0.121749 -0.034090
					CHANNELS 3 Zrotation Yrotation Xrotation
					JOINT LeftArm
					{
						OFFSET 0.090977 0.030469 -0.008868
						CHANNELS 3 Zrotation Yrotation Xrotation
						JOINT LeftForeArm
						{
							OFFSET 0.259612 -0.012772 -0.027456
							CHANNELS 3 Zrotation Yrotation Xrotation
							JOINT LeftHand
							{
								OFFSET 0.249234 0.008986 -0.001171
								CHANNELS 3 Zrotation Yrotation Xrotation
								End Site
								{
									OFFSET 0.000000 0.000000 0.000000
								}
							}
						}
					}
				}
				JOINT RightShoulder
				{
					OFFSET -0.081759 0.118833 -0.038615
					CHANNELS 3 Zrotation Yrotation Xrotation
					JOINT RightArm
					{
						OFFSET -0.096012 0.032551 -0.009143
						CHANNELS 3 Zrotation Yrotation Xrotation
						JOINT RightForeArm
						{
							OFFSET -0.253742 -0.013329 -0.021401
							CHANNELS 3 Zrotation Yrotation Xrotation
							JOINT RightHand
							{
								OFFSET -0.255298 0.007772 -0.005559
								CHANNELS 3 Zrotation Yrotation Xrotation
								End Site
								{
									OFFSET 0.000000 0.000000 0.000000
								}
							}
						}
					}
				}
			}
		}
	}
}
MOTION
Frames: 8
Frame Time: 0.050000
-0.426649 0.546666 -0.135391 -4.701624 10.046400 2.301320 48.250089 7.599798 -36.307876 -21.256911 20.077786 94.799972 9.002010 18.424867 -11.544633 0.000000 0.000000 0.000000 -32.997695 -20.616456 -69.130271 35.348484 -29.798016 72.203086 -26.099532 -46.425493 14.844519 0.000000 0.000000 0.000000 -0.882212 -7.055978 68.498890 -4.754221 1.652353 -35.994174 0.498263 8.362791 20.443596 18.784607 -9.697743 -20.373878 0.000000 0.000000 0.000000 -14.025820 -36.552597 14.880650 -4.217605 -39.174676 -2.073180 67.635316 -30.205694 -20.285375 0.000000 0.000000 0.000000 18.775359 17.881054 11.337587 -13.389354 22.415360 -2.513977 -49.125027 5.093997 -1.424755 0.000000 0.000000 0.000000
-0.420219 0.575106 -0.153930 -4.568115 10.395302 1.368418 46.000107 6.633358 -35.108709 -22.845944 19.809562 90.620841 9.069269 18.615442 -12.683786 0.000000 0.000000 0.000000 -32.971774 -19.116805 -64.526649 33.269821 -27.118033 69.317953 -19.444014 -39.496343 7.533905 0.000000 0.000000 0.000000 -0.620900 -6.807230 64.986089 -5.883114 1.737724 -37.147322 0.536652 7.431837 22.612365 17.852791 -9.517751 -19.850639 0.000000 0.000000 0.000000 -15.488224 -35.543728 14.750411 -8.501472 -39.156878 -1.053134 65.393943 -36.416254 -23.320251 0.000000 0.000000 0.000000 19.574599 17.503446 11.242216 -12.851949 23.958352 -2.797916 -50.452862 4.405598 -1.295362 0.000000 0.000000 0.000000
-0.412873 0.607708 -0.166386 -4.225018 10.120177 0.926720 42.892791 5.498151 -32.789869 -23.961101 18.910231 85.713245 9.786831 20.576758 -14.701189 0.000000 0.000000 0.000000 -32.905418 -17.044826 -59.447742 31.160791 -24.421188 66.060810 -13.553680 -31.125009 -0.521733 0.000000 0.000000 0.000000 0.636475 -6.823967 61.080303 -7.602528 1.959993 -36.697249 0.236271 6.752870 21.426891 18.479960 -10.769160 -17.484566 0.000000 0.000000 0.000000 -18.091412 -34.173319 14.637112 -14.813141 -35.903249 0.420771 65.364878 -44.805922 -28.643708 0.000000 0.000000 0.000000 20.879002 16.405035 10.811101 -10.954756 25.399204 -2.952167 -54.120965 6.485279 -2.326965 0.000000 0.000000 0.000000
-0.406093 0.642079 -0.173200 -3.988578 9.557414 -0.267146 39.398509 4.284040 -29.338471 -24.103465 16.951875 80.513699 11.027444 23.796278 -14.073135 0.000000 0.000000 0.000000 -31.769227 -14.358820 -54.364140 28.406285 -21.491529 63.375125 -10.473645 -24.982459 -4.841629 0.000000 0.000000 0.000000 2.072466 -6.680987 56.507847 -8.262830 2.032172 -36.603593 -0.161025 6.176244 22.465143 17.630778 -9.642089 -19.468163 0.000000 0.000000 0.000000 -20.174439 -31.241884 13.450442 -21.264228 -31.768772 1.202841 62.717869 -52.941975 -32.425130 0.000000 0.000000 0.000000 22.056152 14.822139 10.080011 -10.038237 29.465357 -3.648308 -58.857793 9.511784 -4.194608 0.000000 0.000000 0.000000
-0.400466 0.677966 -0.176475 -3.823719 8.583171 -0.982609 35.329158 3.431329 -26.988518 -21.645024 13.507076 76.804905 11.442982 24.383074 -11.890342 0.000000 0.000000 0.000000 -29.952702 -11.550774 -49.828139 25.306276 -18.027285 59.862151 -8.252981 -19.530346 -6.997567 0.000000 0.000000 0.000000 3.266313 -6.129368 51.239157 -9.020865 2.150339 -35.905711 -0.577254 5.369743 22.777082 17.201573 -9.347973 -19.698686 0.000000 0.000000 0.000000 -21.009625 -27.422934 11.595096 -26.878312 -27.012496 1.176960 58.375530 -59.055694 -33.439791 0.000000 0.000000 0.000000 21.045669 13.564947 8.933674 -6.095780 33.411292 -3.724253 -63.534539 11.325013 -5.296549 0.000000 0.000000 0.000000
-0.396603 0.711429 -0.177221 -3.634246 7.979883 -1.977633 32.294820 2.742360 -24.629850 -19.900838 10.969603 72.517680 10.997874 22.900002 -10.184403 0.000000 0.000000 0.000000 -28.251439 -9.318509 -45.328497 22.226873 -14.863663 56.524002 -6.489863 -14.776641 -7.345599 0.000000 0.000000 0.000000 4.149083 -5.706348 47.055177 -8.951589 2.157386 -35.224295 -1.107295 5.723403 23.810734 17.344392 -7.792959 -24.958878 0.000000 0.000000 0.000000 -19.203071 -23.727244 9.182649 -32.415668 -23.218490 0.806587 52.923711 -64.484767 -33.236992 0.000000 0.000000 0.000000 18.868341 10.800812 7.125113 -1.444447 39.283375 -3.470358 -70.510374 14.058418 -7.121612 0.000000 0.000000 0.000000
-0.394666 0.741482 -0.176433 -3.620401 7.260115 -2.930896 29.511495 2.228355 -22.577514 -17.876577 8.737059 68.814119 9.414266 18.653088 -12.448371 0.000000 0.000000 0.000000 -26.246959 -7.221943 -40.911677 19.564777 -12.068089 52.782323 -5.291663 -11.413467 -7.742898 0.000000 0.000000 0.000000 4.542970 -5.129620 43.391601 -8.532521 2.138670 -34.595594 -1.659810 6.770851 24.433577 17.311124 -7.453829 -25.566064 0.000000 0.000000 0.000000 -18.084453 -20.749600 7.261348 -36.219018 -19.680229 0.068989 45.177022 -67.591126 -29.752548 0.000000 0.000000 0.000000 17.366556 8.682737 5.934150 3.181153 43.299748 -2.512118 -75.793217 16.059853 -8.540352 0.000000 0.000000 0.000000
-0.394248 0.767444 -0.174202 -3.576018 8.361684 -3.359073 27.555237 1.683219 -21.646627 -16.078954 6.317180 65.140005 7.382432 12.041431 -15.812486 0.000000 0.000000 0.000000 -25.065751 -6.172647 -36.394335 17.359055 -10.204002 48.785389 -4.508088 -9.295321 -7.651620 0.000000 0.000000 0.000000 5.258594 -5.021951 39.856620 -8.819546 2.187842 -34.295342 -1.375290 6.672222 25.482134 17.255096 -7.164005 -26.288898 0.000000 0.000000 0.000000 -17.575383 -17.868068 5.619029 -38.739148 -17.034378 -0.723111 38.264825 -70.350910 -26.235076 0.000000 0.000000 0.000000 16.181363 6.755667 4.906921 6.247367 46.731855 -1.649282 -80.748024 18.463624 -10.575416 0.000000 0.000000 0.000000
